<?xml version="1.0" encoding="utf-8"?>
<!-- Generator: Adobe Illustrator 24.3.0, SVG Export Plug-In . SVG Version: 6.00 Build 0)  -->
<svg version="1.1" id="Layer_1" xmlns="http://www.w3.org/2000/svg" xmlns:xlink="http://www.w3.org/1999/xlink" x="0px" y="0px"
	 viewBox="0 0 950.9 923.8" style="enable-background:new 0 0 950.9 923.8;" xml:space="preserve">
<style type="text/css">
	.st0{fill:#2A387A;}
	.st1{fill:#FF7A00;}
	.st2{fill:#FFFFFF;}
	.st3{fill:#F45D00;}
	.st4{fill:#FFF0D5;}
	.st5{fill:#303038;}
	.st6{fill:#828186;}
	.st7{fill:#F48260;}
	.st8{fill:#F69670;}
	.st9{clip-path:url(#SVGID_2_);}
	.st10{fill:#212649;}
	.st11{fill:#F7F6FB;}
	.st12{fill:#F08A39;}
	.st13{fill:#393B65;}
	.st14{fill:none;stroke:#4A4D78;}
	.st15{fill:#292B47;}
	.st16{fill:none;stroke:#EE7E2D;stroke-width:2;stroke-linecap:round;}
	.st17{fill:#A3A5C3;}
	.st18{fill:#EE7E2D;}
	.st19{fill:#3A3D68;}
	.st20{clip-path:url(#SVGID_4_);}
	.st21{clip-path:url(#SVGID_6_);}
	.st22{fill:#EA1B1B;}
	.st23{fill:none;stroke:#FFFFFF;stroke-miterlimit:10;}
	.st24{fill:#323868;}
	.st25{fill:#252A4C;}
	.st26{fill:#F98B30;}
	.st27{fill:#F6E7C8;}
	.st28{fill:#FFFFFF;filter:url(#Adobe_OpacityMaskFilter);}
	.st29{mask:url(#mask0_3_2_2_);}
	.st30{fill:#F0D080;}
	.st31{fill:#DC8745;}
	.st32{fill:#FF4800;}
	.st33{fill:#F6EA8C;}
	.st34{fill:#ECC25D;}
	.st35{fill:#A05725;}
	.st36{fill:#313668;}
	.st37{fill:none;stroke:#FFFFFF;stroke-width:2;stroke-linecap:round;}
	.st38{fill:#272747;}
	.st39{fill:#3F3346;}
	.st40{fill:#F28C3D;}
	.st41{fill:none;stroke:#000000;}
	.st42{fill:#2A2F5E;}
	.st43{opacity:0.25;}
	.st44{fill:#334350;}
	.st45{fill:none;stroke:#FFFFFF;stroke-width:9;stroke-miterlimit:10;}
	.st46{fill:#4C6579;}
	.st47{fill:#FFFEFF;}
	.st48{fill:#3672A4;}
	.st49{fill:#FFD140;}
</style>
<g id="Logo_1_">
	<path class="st3" d="M716.7,672.3h-484c-43.6,0-79-35.4-79-79v-484c0-43.6,35.4-79,79-79h484c43.6,0,79,35.4,79,79v484
		C795.7,636.9,760.3,672.3,716.7,672.3z"/>
	<g>
		<path class="st4" d="M475.1,651.2H336.3c-50.9-6.4-89.5-18.9-114.8-28.9c-30.1-11.9-49-23.3-56.9-41c-2-4.4-6.6-16.6-9.1-32.2
			c-1-6-1.5-11.7-1.8-23.3c-0.4-11.9-0.5-28.1,0.4-47.9c8.5-3.1,21.2-6.5,36.9-6.8c21.3-0.3,37.9,5.4,47.4,9.5
			c7.2,7.9,19.6,19.2,38.1,27c36.2,15.2,69.6,5.7,79.7,2.4c9.9,0.2,22.7-0.4,37.1-3.6c10.2-2.3,19-5.4,26.3-8.4
			c2.3,5.6,5.6,12,10.4,18.4c14.9,19.9,35,28.1,44.8,31.3C474.8,582.2,475,616.7,475.1,651.2z"/>
		<path class="st4" d="M474.2,651.2h138.8c50.6-7,89.1-19.1,114.8-28.9c24-9.2,47.8-20.5,56.9-41c1.7-3.7,5.2-13.1,7.7-24.8
			c1.7-8.1,2.7-16,3.2-30.7c0.4-12.2,0.6-28.5-0.4-47.9c-8.5-3.1-21.2-6.5-36.9-6.8c-21.3-0.3-37.9,5.4-47.4,9.5
			c-7.2,7.9-19.6,19.2-38.1,27c-36.2,15.2-69.6,5.7-79.7,2.4c-9.9,0.2-22.7-0.4-37.1-3.6c-10.2-2.3-19-5.4-26.3-8.4
			c-8.1,8.1-16.8,16.4-26.1,24.8c-9.9,9-19.7,17.3-29.2,24.9C474.5,582.2,474.4,616.7,474.2,651.2z"/>
	</g>
	<g>
		<path class="st1" d="M474.7,474.5V215.9c21.2,2.3,36.6-0.9,46-3.7c37.1-11.1,51.7-37.5,111.8-83.3c0,0,12.1-9.2,30.6-19.3
			c21.3-11.6,32.1-17.4,42.3-14.9c3.1,0.8,13.7,3.9,32.2,39.9c8.4,16.3,12.4,27.6,20.5,49.7c21.9,59.8,29.7,78.3,35.8,112.2
			c0.5,3,3.2,56.9,1.8,92.5c-1,23.5-1.6,56.9,0,97.9c-7.1-2.3-15.5-4.4-25.1-5.7c-7.4-1-14.2-1.5-20.2-1.5
			c-4.7,0.1-10.3,0.6-16.5,1.9c-9.3,2-16.9,5.2-22.5,8.1c28.7-41.8,30.1-95.3,4.3-133.2c-27.4-40.2-73.4-45.3-80.6-46
			c-9,0.1-37.5,1.5-62.7,23.2c-21.2,18.3-28.2,40.7-31.6,52.1c-3.1,10.5-12,42.5,2.7,78.4c14.3,35,41.8,51.1,50.1,55.6
			c-21.3-4.1-42.5-8.2-63.8-12.3c0.3-2.5,0.1-4.8-0.3-6.8C526.1,485.9,503.8,476.3,474.7,474.5z"/>
		<path class="st1" d="M475.1,474.5V215.9c-21.2,2.3-36.6-0.9-46-3.7c-37.1-11.1-51.7-37.5-111.8-83.3c0,0-12.1-9.2-30.6-19.3
			c-21.3-11.6-32.1-17.4-42.3-14.9c-3.1,0.8-13.7,3.9-32.2,39.9c-8.4,16.3-12.4,27.6-20.5,49.7c-21.9,59.8-29.7,78.3-35.8,112.2
			c-0.5,3-3.2,56.9-1.8,92.5c1,23.5,1.6,56.9,0,97.9c7.1-2.3,15.5-4.4,25.1-5.7c7.4-1,14.2-1.5,20.2-1.5c4.7,0.1,10.3,0.6,16.5,1.9
			c9.3,2,16.9,5.2,22.5,8.1c-28.7-41.8-30.1-95.3-4.3-133.2c27.4-40.2,73.4-45.3,80.6-46c9,0.1,37.5,1.5,62.7,23.2
			c21.2,18.3,28.2,40.7,31.6,52.1c3.1,10.5,12,42.5-2.7,78.4c-14.3,35-41.8,51.1-50.1,55.6c21.3-4.1,42.5-8.2,63.8-12.3
			c-0.3-2.5-0.1-4.8,0.3-6.8C423.7,485.9,446,476.3,475.1,474.5z"/>
	</g>
	<g>
		<ellipse class="st2" cx="315.4" cy="416.5" rx="103.9" ry="114.4"/>
		<ellipse class="st2" cx="635.4" cy="416.5" rx="103.9" ry="114.4"/>
	</g>
	<g>
		<path class="st4" d="M216.2,307.1c-0.6-23.9,0-54.3,4.4-86.6c0,0,2.8-20.2,14.5-48.6c5.7-13.7,8.9-17.9,13.5-19.6
			c6.6-2.4,16.4,0.3,38.1,20.9c13.7,12.9,32.2,33,50.1,62.2c-16.7,4.7-37.9,12.4-60.6,25.3C249.4,275.9,229.6,293.3,216.2,307.1z"/>
		<path class="st4" d="M734,307.1c0.6-23.9,0-54.3-4.4-86.6c0,0-2.8-20.2-14.5-48.6c-5.7-13.7-8.9-17.9-13.5-19.6
			c-6.6-2.4-16.4,0.3-38.1,20.9c-13.7,12.9-32.2,33-50.1,62.2c16.7,4.7,37.9,12.4,60.6,25.3C700.8,275.9,720.6,293.3,734,307.1z"/>
	</g>
	<g>
		<path class="st5" d="M474.7,547.8v-81.8c5.1,0.1,41.1,1.5,52.3,22.9c0.9,1.7,2.5,4.8,2.9,9.2c1.7,17.9-19.1,32.3-26.1,37.1
			C498.1,539.1,488.4,544.7,474.7,547.8z"/>
		<path class="st5" d="M474.7,547.8v-81.8c-5.1,0.1-41.1,1.5-52.3,22.9c-0.9,1.7-2.5,4.8-2.9,9.2c-1.7,17.9,19.1,32.3,26.1,37.1
			C451.2,539.1,460.9,544.7,474.7,547.8z"/>
	</g>
	<ellipse class="st6" cx="461.9" cy="486.8" rx="18.4" ry="9.2"/>
	<ellipse class="st5" cx="324.5" cy="416.2" rx="51.5" ry="64.9"/>
	<ellipse class="st5" cx="625" cy="416.2" rx="51.5" ry="64.9"/>
</g>
</svg>
