<?xml version="1.0" encoding="utf-8"?>
<!-- Generator: Adobe Illustrator 24.3.0, SVG Export Plug-In . SVG Version: 6.00 Build 0)  -->
<svg version="1.1" id="Layer_1" xmlns="http://www.w3.org/2000/svg" xmlns:xlink="http://www.w3.org/1999/xlink" x="0px" y="0px"
	 viewBox="0 0 1080 1920" style="enable-background:new 0 0 1080 1920;" xml:space="preserve">
<style type="text/css">
	.st0{fill:#212649;}
	.st1{fill:#FF7A00;}
	.st2{fill:#FFFFFF;}
	.st3{fill:#2A387A;}
	.st4{fill:#323868;}
	.st5{fill:#EA1B1B;}
	.st6{fill:none;stroke:#FFFFFF;stroke-miterlimit:10;}
	.st7{fill:#323869;}
	.st8{font-family:'Poppins-Medium';}
	.st9{font-size:54.9547px;}
	.st10{font-size:30px;}
	.st11{font-size:40px;}
	.st12{font-family:'FredokaOne-Regular';}
	.st13{fill:#252A4C;}
	.st14{fill:#F45D00;}
	.st15{fill:#FFF0D5;}
	.st16{fill:#303038;}
	.st17{fill:#828186;}
	.st18{fill:#F98B30;}
	.st19{fill:#F6E7C8;}
	.st20{clip-path:url(#SVGID_2_);}
	.st21{font-size:45px;}
	.st22{fill:#F0D080;}
	.st23{fill:#DC8745;}
	.st24{font-size:38.6346px;}
	.st25{fill:#FF4800;}
	.st26{fill:#F6EA8C;}
	.st27{fill:#F48260;}
	.st28{fill:#F69670;}
	.st29{font-size:45.4965px;}
	.st30{fill:#ECC25D;}
	.st31{fill:#A05725;}
	.st32{font-size:22.1585px;}
	.st33{fill:#313668;}
	.st34{fill:none;}
</style>
<rect class="st0" width="1080" height="1920"/>
<path class="st1" d="M1005.97,509.68H74.03C33.14,509.68,0,476.54,0,435.65V0h1080v435.65
	C1080,476.54,1046.86,509.68,1005.97,509.68z"/>
<circle class="st2" cx="124.37" cy="178.92" r="77.94"/>
<path class="st3" d="M193.26,383.01H63.53c-9.94,0-18-8.06-18-18v-49.53c0-9.94,8.06-18,18-18h129.74c9.94,0,18,8.06,18,18v49.53
	C211.26,374.95,203.21,383.01,193.26,383.01z"/>
<path class="st3" d="M418.26,383.5H252c-9.94,0-18-8.06-18-18v-49.53c0-9.94,8.06-18,18-18h166.27c9.94,0,18,8.06,18,18v49.53
	C436.26,375.44,428.21,383.5,418.26,383.5z"/>
<path class="st4" d="M998.16,618.91H81.84c-19.56,0-35.41-15.85-35.41-35.41v-126c0-19.56,15.85-35.41,35.41-35.41h916.33
	c19.56,0,35.41,15.85,35.41,35.41v126C1033.58,603.05,1017.72,618.91,998.16,618.91z"/>
<g>
	<path class="st5" d="M995.62,110.92c-8.69,0.06-15.72-6.94-15.73-15.64c-0.01-8.52,6.98-15.56,15.48-15.59
		c8.68-0.03,15.71,6.84,15.78,15.43C1011.23,103.87,1004.35,110.86,995.62,110.92z"/>
	<g>
		<path class="st6" d="M982.72,82.7c-10.91,10.09-5.08,27.35,9.36,29.11c0,2.18,0.03,4.38-0.01,6.58c-0.05,2.72,0.93,4.91,3.05,6.65
			c2,1.64,3.91,3.37,5.86,5.07c1.43,1.24,1.93,2.93,1.35,4.55c-0.58,1.61-2.04,2.63-3.96,2.63c-19.7,0.01-39.39,0.01-59.09-0.01
			c-1.94,0-3.38-1-3.97-2.6c-0.58-1.6-0.1-3.27,1.36-4.54c1.98-1.73,3.95-3.47,5.96-5.17c1.96-1.65,2.94-3.73,2.94-6.28
			c0-5.5-0.01-11,0-16.5c0.03-10.83,6.2-19.33,16.54-22.65c1.09-0.35,1.16-0.95,1.18-1.86c0.03-2.31,1.03-4.1,3.17-5.07
			c2.04-0.93,4.04-0.7,5.84,0.69c1.44,1.11,2.11,2.65,2.01,4.44c-0.07,1.11,0.39,1.47,1.38,1.85
			C978.03,80.48,980.29,81.6,982.72,82.7z"/>
		<path class="st6" d="M957.18,140.24c7.87,0,15.52,0,23.29,0c-0.16,4.2-1.85,7.46-5.32,9.63c-4.11,2.57-8.38,2.6-12.52,0.07
			C959.09,147.78,957.35,144.49,957.18,140.24z"/>
	</g>
</g>
<path class="st1" d="M892.3,1637.23H93.86c-26.2,0-47.44-21.24-47.44-47.44v-252.92c0-26.2,21.24-47.44,47.44-47.44H892.3
	c26.2,0,47.44,21.24,47.44,47.44v252.92C939.73,1615.99,918.5,1637.23,892.3,1637.23z"/>
<path class="st7" d="M1080,1637.23h-33.06c-26.2,0-47.44-21.24-47.44-47.44v-252.92c0-26.2,21.24-47.44,47.44-47.44H1080V1637.23z"
	/>
<path class="st1" d="M344.44,1153.71H70.2c-13.13,0-23.77-10.64-23.77-23.77V793.01c0-13.13,10.64-23.77,23.77-23.77h274.24
	c13.13,0,23.77,10.64,23.77,23.77v336.92C368.22,1143.07,357.57,1153.71,344.44,1153.71z"/>
<path class="st7" d="M726,1153.71H451.75c-13.13,0-23.77-10.64-23.77-23.77V793.01c0-13.13,10.64-23.77,23.77-23.77H726
	c13.13,0,23.77,10.64,23.77,23.77v336.92C749.77,1143.07,739.13,1153.71,726,1153.71z"/>
<path class="st7" d="M1080,1153.71H833.31c-13.13,0-23.77-10.64-23.77-23.77V793.01c0-13.13,10.64-23.77,23.77-23.77H1080V1153.71z"
	/>
<text transform="matrix(1 0 0 1 46.4238 719.2803)" class="st2 st8 st9">Daily Quests</text>
<text transform="matrix(1 0 0 1 935.6826 751.0604)" class="st1 st8 st10">See All</text>
<text transform="matrix(1 0 0 1 46.4238 1242.1442)" class="st2 st8 st9">Continue Learning</text>
<text transform="matrix(1 0 0 1 935.6826 1273.9243)" class="st1 st8 st10">See All</text>
<text transform="matrix(1 0 0 1 86.7922 486.4601)"><tspan x="0" y="0" class="st2 st8 st11">Daily Goal Progress : </tspan><tspan x="419.95" y="0" class="st2 st12 st11">80%</tspan></text>
<path class="st1" d="M680.96,563.47H102.7c-7.13,0-12.91-5.78-12.91-12.91v-6.92c0-7.13,5.78-12.91,12.91-12.91h578.26
	c7.13,0,12.91,5.78,12.91,12.91v6.92C693.87,557.69,688.09,563.47,680.96,563.47z"/>
<path class="st13" d="M680.96,563.47h-93.62v-32.74h93.62c7.13,0,12.91,5.78,12.91,12.91v6.92
	C693.87,557.69,688.09,563.47,680.96,563.47z"/>
<g>
	<g>
		<g>
			<g>
				<path class="st15" d="M572.19,569.35h-13.94c-1.52,0.03-3.68-0.08-6.18-0.72c-2.16-0.56-3.59-1.26-5.36-2.13
					c-3.26-1.61-4.96-2.38-5.71-4.05c-0.2-0.44-0.66-1.64-0.91-3.19c-0.1-0.59-0.15-1.16-0.18-2.3c-0.04-1.18-0.05-2.78,0.04-4.73
					c0.86-0.3,2.13-0.65,3.7-0.67c2.14-0.03,3.81,0.53,4.76,0.94c0.72,0.78,1.97,1.9,3.82,2.67c3.64,1.51,6.99,0.57,8,0.24
					c1,0.02,2.28-0.04,3.72-0.36c1.03-0.23,1.91-0.53,2.64-0.83c0.23,0.55,0.56,1.19,1.05,1.82c1.5,1.97,3.51,2.78,4.5,3.09
					C572.17,562.53,572.18,565.94,572.19,569.35z"/>
				<path class="st15" d="M572.11,569.35h13.94c2.7,0.09,7.22-0.12,11.71-2.27c1.5-0.72,4.45-2.17,5.54-4.64
					c0.14-0.33,0.51-1.25,0.77-2.45c0.17-0.8,0.27-1.58,0.32-3.04c0.05-1.21,0.06-2.81-0.04-4.73c-0.86-0.3-2.13-0.65-3.7-0.67
					c-2.14-0.03-3.81,0.53-4.76,0.94c-0.72,0.78-1.97,1.9-3.82,2.67c-3.64,1.51-6.99,0.57-8,0.24c-1,0.02-2.28-0.04-3.72-0.36
					c-1.03-0.23-1.91-0.53-2.64-0.83c-0.14,0.59-0.52,1.86-1.65,3.01c-1.5,1.53-3.33,1.83-3.9,1.9
					C572.13,562.53,572.12,565.94,572.11,569.35z"/>
			</g>
			<g>
				<path class="st1" d="M572.15,551.86v-23.85c2.12,0.21,3.68-0.08,4.62-0.34c3.73-1.02,5.19-3.46,11.23-7.68
					c0,0,1.21-0.85,3.08-1.78c2.14-1.07,3.22-1.6,4.24-1.38c0.32,0.07,1.37,0.36,3.23,3.68c0.85,1.51,1.24,2.54,2.05,4.58
					c2.2,5.52,2.99,7.22,3.6,10.35c0.05,0.27,0.32,5.25,0.18,8.53c-0.1,2.16-0.17,5.25,0,9.03c-0.71-0.21-1.55-0.4-2.52-0.53
					c-0.74-0.1-1.42-0.13-2.03-0.14c-0.47,0.01-1.04,0.05-1.66,0.18c-0.94,0.18-1.7,0.48-2.26,0.75c2.89-3.85,3.02-8.79,0.44-12.29
					c-2.75-3.71-7.37-4.18-8.09-4.24c-0.9,0.01-3.77,0.14-6.3,2.14c-2.13,1.68-2.83,3.75-3.17,4.8c-0.31,0.96-1.21,3.92,0.27,7.23
					c1.44,3.23,4.2,4.72,5.04,5.13c-2.14-0.38-4.27-0.76-6.41-1.14c0.03-0.23,0.01-0.44-0.03-0.62
					C577.31,552.91,575.07,552.03,572.15,551.86z"/>
				<path class="st1" d="M572.19,551.86v-23.85c-2.12,0.21-3.68-0.08-4.62-0.34c-3.73-1.02-5.19-3.46-11.23-7.68
					c0,0-1.21-0.85-3.08-1.78c-2.14-1.07-3.22-1.6-4.24-1.38c-0.32,0.07-1.37,0.36-3.23,3.68c-0.85,1.51-1.24,2.54-2.05,4.58
					c-2.2,5.52-2.99,7.22-3.6,10.35c-0.05,0.27-0.32,5.25-0.18,8.53c0.1,2.16,0.17,5.25,0,9.03c0.71-0.21,1.55-0.4,2.52-0.53
					c0.74-0.1,1.42-0.13,2.03-0.14c0.47,0.01,1.04,0.05,1.66,0.18c0.94,0.18,1.7,0.48,2.26,0.75c-2.89-3.85-3.02-8.79-0.44-12.29
					c2.75-3.71,7.37-4.18,8.09-4.24c0.9,0.01,3.77,0.14,6.3,2.14c2.13,1.68,2.83,3.75,3.17,4.8c0.31,0.96,1.21,3.92-0.27,7.23
					c-1.44,3.23-4.2,4.72-5.04,5.13c2.14-0.38,4.27-0.76,6.41-1.14c-0.03-0.23-0.01-0.44,0.03-0.62
					C567.03,552.91,569.27,552.03,572.19,551.86z"/>
			</g>
			<g>
				<ellipse class="st2" cx="556.15" cy="547.2" rx="10.44" ry="10.8"/>
				<ellipse class="st2" cx="588.29" cy="547.2" rx="10.44" ry="10.8"/>
			</g>
			<g>
				<path class="st15" d="M546.2,536.87c-0.06-2.26,0-5.13,0.44-8.18c0,0,0.28-1.91,1.46-4.59c0.57-1.3,0.9-1.69,1.36-1.85
					c0.67-0.23,1.65,0.03,3.83,1.97c1.37,1.22,3.23,3.11,5.04,5.87c-1.68,0.44-3.8,1.17-6.08,2.38
					C549.53,533.93,547.54,535.57,546.2,536.87z"/>
				<path class="st15" d="M598.19,536.87c0.06-2.26,0-5.13-0.44-8.18c0,0-0.28-1.91-1.46-4.59c-0.57-1.3-0.9-1.69-1.36-1.85
					c-0.67-0.23-1.65,0.03-3.83,1.97c-1.37,1.22-3.23,3.11-5.04,5.87c1.68,0.44,3.8,1.17,6.08,2.38
					C594.86,533.93,596.85,535.57,598.19,536.87z"/>
			</g>
			<g>
				<path class="st16" d="M572.15,559.58v-7.72c0.52,0.01,4.13,0.15,5.26,2.16c0.09,0.16,0.25,0.46,0.29,0.87
					c0.17,1.69-1.92,3.05-2.62,3.5C574.5,558.77,573.53,559.29,572.15,559.58z"/>
				<path class="st16" d="M572.15,559.58v-7.72c-0.52,0.01-4.13,0.15-5.26,2.16c-0.09,0.16-0.25,0.46-0.29,0.87
					c-0.17,1.69,1.92,3.05,2.62,3.5C569.8,558.77,570.77,559.29,572.15,559.58z"/>
			</g>
			<ellipse class="st17" cx="570.87" cy="553.84" rx="1.85" ry="0.87"/>
			<ellipse class="st16" cx="557.07" cy="547.17" rx="5.18" ry="6.13"/>
			<ellipse class="st16" cx="587.25" cy="547.17" rx="5.18" ry="6.13"/>
		</g>
	</g>
	<g>
		<g>
			<g>
				<path class="st15" d="M572.19,569.35h-13.94c-1.52,0.03-3.68-0.08-6.18-0.72c-2.16-0.56-3.59-1.26-5.36-2.13
					c-3.26-1.61-4.96-2.38-5.71-4.05c-0.2-0.44-0.66-1.64-0.91-3.19c-0.1-0.59-0.15-1.16-0.18-2.3c-0.04-1.18-0.05-2.78,0.04-4.73
					c0.86-0.3,2.13-0.65,3.7-0.67c2.14-0.03,3.81,0.53,4.76,0.94c0.72,0.78,1.97,1.9,3.82,2.67c3.64,1.51,6.99,0.57,8,0.24
					c1,0.02,2.28-0.04,3.72-0.36c1.03-0.23,1.91-0.53,2.64-0.83c0.23,0.55,0.56,1.19,1.05,1.82c1.5,1.97,3.51,2.78,4.5,3.09
					C572.17,562.53,572.18,565.94,572.19,569.35z"/>
				<path class="st15" d="M572.11,569.35h13.94c2.7,0.09,7.22-0.12,11.71-2.27c1.5-0.72,4.45-2.17,5.54-4.64
					c0.14-0.33,0.51-1.25,0.77-2.45c0.17-0.8,0.27-1.58,0.32-3.04c0.05-1.21,0.06-2.81-0.04-4.73c-0.86-0.3-2.13-0.65-3.7-0.67
					c-2.14-0.03-3.81,0.53-4.76,0.94c-0.72,0.78-1.97,1.9-3.82,2.67c-3.64,1.51-6.99,0.57-8,0.24c-1,0.02-2.28-0.04-3.72-0.36
					c-1.03-0.23-1.91-0.53-2.64-0.83c-0.14,0.59-0.52,1.86-1.65,3.01c-1.5,1.53-3.33,1.83-3.9,1.9
					C572.13,562.53,572.12,565.94,572.11,569.35z"/>
			</g>
			<g>
				<path class="st1" d="M572.15,551.86v-23.85c2.12,0.21,3.68-0.08,4.62-0.34c3.73-1.02,5.19-3.46,11.23-7.68
					c0,0,1.21-0.85,3.08-1.78c2.14-1.07,3.22-1.6,4.24-1.38c0.32,0.07,1.37,0.36,3.23,3.68c0.85,1.51,1.24,2.54,2.05,4.58
					c2.2,5.52,2.99,7.22,3.6,10.35c0.05,0.27,0.32,5.25,0.18,8.53c-0.1,2.16-0.17,5.25,0,9.03c-0.71-0.21-1.55-0.4-2.52-0.53
					c-0.74-0.1-1.42-0.13-2.03-0.14c-0.47,0.01-1.04,0.05-1.66,0.18c-0.94,0.18-1.7,0.48-2.26,0.75c2.89-3.85,3.02-8.79,0.44-12.29
					c-2.75-3.71-7.37-4.18-8.09-4.24c-0.9,0.01-3.77,0.14-6.3,2.14c-2.13,1.68-2.83,3.75-3.17,4.8c-0.31,0.96-1.21,3.92,0.27,7.23
					c1.44,3.23,4.2,4.72,5.04,5.13c-2.14-0.38-4.27-0.76-6.41-1.14c0.03-0.23,0.01-0.44-0.03-0.62
					C577.31,552.91,575.07,552.03,572.15,551.86z"/>
				<path class="st1" d="M572.19,551.86v-23.85c-2.12,0.21-3.68-0.08-4.62-0.34c-3.73-1.02-5.19-3.46-11.23-7.68
					c0,0-1.21-0.85-3.08-1.78c-2.14-1.07-3.22-1.6-4.24-1.38c-0.32,0.07-1.37,0.36-3.23,3.68c-0.85,1.51-1.24,2.54-2.05,4.58
					c-2.2,5.52-2.99,7.22-3.6,10.35c-0.05,0.27-0.32,5.25-0.18,8.53c0.1,2.16,0.17,5.25,0,9.03c0.71-0.21,1.55-0.4,2.52-0.53
					c0.74-0.1,1.42-0.13,2.03-0.14c0.47,0.01,1.04,0.05,1.66,0.18c0.94,0.18,1.7,0.48,2.26,0.75c-2.89-3.85-3.02-8.79-0.44-12.29
					c2.75-3.71,7.37-4.18,8.09-4.24c0.9,0.01,3.77,0.14,6.3,2.14c2.13,1.68,2.83,3.75,3.17,4.8c0.31,0.96,1.21,3.92-0.27,7.23
					c-1.44,3.23-4.2,4.72-5.04,5.13c2.14-0.38,4.27-0.76,6.41-1.14c-0.03-0.23-0.01-0.44,0.03-0.62
					C567.03,552.91,569.27,552.03,572.19,551.86z"/>
			</g>
			<g>
				<ellipse class="st2" cx="556.15" cy="547.2" rx="10.44" ry="10.8"/>
				<ellipse class="st2" cx="588.29" cy="547.2" rx="10.44" ry="10.8"/>
			</g>
			<g>
				<path class="st15" d="M546.2,536.87c-0.06-2.26,0-5.13,0.44-8.18c0,0,0.28-1.91,1.46-4.59c0.57-1.3,0.9-1.69,1.36-1.85
					c0.67-0.23,1.65,0.03,3.83,1.97c1.37,1.22,3.23,3.11,5.04,5.87c-1.68,0.44-3.8,1.17-6.08,2.38
					C549.53,533.93,547.54,535.57,546.2,536.87z"/>
				<path class="st15" d="M598.19,536.87c0.06-2.26,0-5.13-0.44-8.18c0,0-0.28-1.91-1.46-4.59c-0.57-1.3-0.9-1.69-1.36-1.85
					c-0.67-0.23-1.65,0.03-3.83,1.97c-1.37,1.22-3.23,3.11-5.04,5.87c1.68,0.44,3.8,1.17,6.08,2.38
					C594.86,533.93,596.85,535.57,598.19,536.87z"/>
			</g>
			<g>
				<path class="st16" d="M572.15,559.58v-7.72c0.52,0.01,4.13,0.15,5.26,2.16c0.09,0.16,0.25,0.46,0.29,0.87
					c0.17,1.69-1.92,3.05-2.62,3.5C574.5,558.77,573.53,559.29,572.15,559.58z"/>
				<path class="st16" d="M572.15,559.58v-7.72c-0.52,0.01-4.13,0.15-5.26,2.16c-0.09,0.16-0.25,0.46-0.29,0.87
					c-0.17,1.69,1.92,3.05,2.62,3.5C569.8,558.77,570.77,559.29,572.15,559.58z"/>
			</g>
			<ellipse class="st17" cx="570.87" cy="553.84" rx="1.85" ry="0.87"/>
			<ellipse class="st16" cx="557.07" cy="547.17" rx="5.18" ry="6.13"/>
			<ellipse class="st16" cx="587.25" cy="547.17" rx="5.18" ry="6.13"/>
		</g>
	</g>
</g>
<g>
	<g>
		<polygon points="760.94,592.73 760.94,537.56 895.6,537.56 895.6,593.85 		"/>
		<g>
			<g>
				<path class="st15" d="M811.07,414.16h-53.65c-5.83,0.1-14.17-0.31-23.76-2.78c-8.3-2.14-13.82-4.86-20.61-8.2
					c-12.55-6.18-19.07-9.17-21.99-15.6c-0.76-1.68-2.54-6.32-3.5-12.26c-0.37-2.28-0.57-4.46-0.71-8.85
					c-0.14-4.52-0.2-10.71,0.17-18.21c3.3-1.17,8.2-2.48,14.25-2.58c8.22-0.13,14.65,2.05,18.3,3.61
					c2.78,2.99,7.59,7.31,14.71,10.26c13.99,5.8,26.89,2.17,30.78,0.92c3.85,0.09,8.77-0.15,14.32-1.37
					c3.95-0.87,7.36-2.04,10.15-3.2c0.89,2.13,2.17,4.56,4.03,7.02c5.75,7.58,13.51,10.68,17.32,11.9
					C810.96,387.91,811.02,401.03,811.07,414.16z"/>
				<path class="st15" d="M810.73,414.16h53.65c10.38,0.35,27.78-0.46,45.05-8.75c5.77-2.77,17.12-8.36,21.3-17.84
					c0.55-1.25,1.97-4.79,2.97-9.42c0.67-3.08,1.03-6.07,1.24-11.7c0.18-4.65,0.24-10.83-0.17-18.21c-3.3-1.17-8.2-2.48-14.25-2.58
					c-8.22-0.13-14.65,2.05-18.3,3.61c-2.78,2.99-7.59,7.31-14.71,10.26c-13.99,5.8-26.89,2.17-30.78,0.92
					c-3.85,0.09-8.77-0.15-14.32-1.37c-3.95-0.87-7.36-2.04-10.15-3.2c-0.53,2.27-2.01,7.17-6.35,11.6c-5.79,5.9-12.82,7.05-15,7.32
					C810.84,387.91,810.79,401.03,810.73,414.16z"/>
			</g>
			<g>
				<path class="st1" d="M810.9,346.87v-91.76c8.17,0.83,14.16-0.32,17.79-1.31c14.35-3.94,19.99-13.3,43.21-29.57
					c0,0,4.68-3.27,11.84-6.86c8.22-4.12,12.41-6.16,16.33-5.3c1.21,0.27,5.29,1.4,12.44,14.15c3.25,5.8,4.78,9.78,7.91,17.64
					c8.45,21.23,11.49,27.78,13.85,39.82c0.21,1.05,1.25,20.19,0.68,32.82c-0.38,8.32-0.64,20.19,0,34.74
					c-2.73-0.8-5.98-1.56-9.69-2.04c-2.85-0.37-5.48-0.51-7.81-0.53c-1.82,0.03-3.99,0.21-6.37,0.67c-3.6,0.7-6.53,1.84-8.68,2.88
					c11.1-14.83,11.64-33.84,1.68-47.29c-10.57-14.27-28.36-16.08-31.15-16.32c-3.47,0.03-14.51,0.54-24.24,8.23
					c-8.2,6.48-10.89,14.44-12.2,18.49c-1.2,3.71-4.66,15.07,1.03,27.83c5.54,12.41,16.17,18.15,19.38,19.73
					c-8.22-1.46-16.43-2.91-24.65-4.37c0.12-0.9,0.06-1.7-0.13-2.4C830.77,350.91,822.15,347.53,810.9,346.87z"/>
				<path class="st1" d="M811.07,346.87v-91.76c-8.17,0.83-14.16-0.32-17.79-1.31c-14.35-3.94-19.99-13.3-43.21-29.57
					c0,0-4.68-3.27-11.84-6.86c-8.22-4.12-12.41-6.16-16.33-5.3c-1.21,0.27-5.29,1.4-12.44,14.15c-3.25,5.8-4.78,9.78-7.91,17.64
					c-8.45,21.23-11.49,27.78-13.85,39.82c-0.21,1.05-1.25,20.19-0.68,32.82c0.38,8.32,0.64,20.19,0,34.74
					c2.73-0.8,5.98-1.56,9.69-2.04c2.85-0.37,5.48-0.51,7.81-0.53c1.82,0.03,3.99,0.21,6.37,0.67c3.6,0.7,6.53,1.84,8.68,2.88
					c-11.1-14.83-11.64-33.84-1.68-47.29c10.57-14.27,28.36-16.08,31.15-16.32c3.47,0.03,14.51,0.54,24.24,8.23
					c8.2,6.48,10.89,14.44,12.2,18.49c1.2,3.71,4.66,15.07-1.03,27.83c-5.54,12.41-16.17,18.15-19.38,19.73
					c8.22-1.46,16.43-2.91,24.65-4.37c-0.12-0.9-0.06-1.7,0.13-2.4C791.2,350.91,799.83,347.53,811.07,346.87z"/>
			</g>
			<g>
				<ellipse class="st2" cx="749.35" cy="328.92" rx="40.17" ry="41.54"/>
				<ellipse class="st2" cx="873.01" cy="328.92" rx="40.17" ry="41.54"/>
			</g>
			<g>
				<path class="st15" d="M711.04,289.19c-0.24-8.68,0-19.73,1.71-31.46c0,0,1.07-7.35,5.62-17.65c2.2-4.99,3.45-6.51,5.24-7.11
					c2.57-0.87,6.33,0.13,14.73,7.57c5.28,4.69,12.44,11.97,19.38,22.57c-6.45,1.7-14.63,4.49-23.41,9.18
					C723.86,277.87,716.22,284.19,711.04,289.19z"/>
				<path class="st15" d="M911.11,289.19c0.24-8.68,0-19.73-1.71-31.46c0,0-1.07-7.35-5.62-17.65c-2.2-4.99-3.45-6.51-5.24-7.11
					c-2.57-0.87-6.33,0.13-14.73,7.57c-5.28,4.69-12.44,11.97-19.38,22.57c6.45,1.7,14.63,4.49,23.41,9.18
					C898.29,277.87,905.93,284.19,911.11,289.19z"/>
			</g>
			<g>
				<path class="st16" d="M810.9,376.58v-29.71c1.98,0.05,15.89,0.56,20.23,8.3c0.34,0.61,0.97,1.75,1.12,3.35
					c0.64,6.5-7.38,11.72-10.08,13.47C819.96,373.44,816.22,375.46,810.9,376.58z"/>
				<path class="st16" d="M810.9,376.58v-29.71c-1.98,0.05-15.89,0.56-20.23,8.3c-0.34,0.61-0.97,1.75-1.12,3.35
					c-0.64,6.5,7.38,11.72,10.08,13.47C801.85,373.44,805.59,375.46,810.9,376.58z"/>
			</g>
			<ellipse class="st17" cx="805.98" cy="354.46" rx="7.13" ry="3.33"/>
			<ellipse class="st16" cx="752.89" cy="328.83" rx="19.92" ry="23.58"/>
			<ellipse class="st16" cx="868.99" cy="328.83" rx="19.92" ry="23.58"/>
		</g>
		<path class="st18" d="M739.22,412.4c-2.48,23.58-4.96,47.16-7.44,70.74c-3.37,1.63-16.85,8.6-22.91,24.04
			c-7.84,19.99,3.36,37.33,4.76,39.42c3.47,6.97,9.56,17.1,19.94,27.12c10.01,9.66,20.21,15.56,27.38,19.01
			c2.64-3.99,6.82-10.48,11.61-18.73c8.48-14.63,10.25-19.93,16.75-24.17c3.67-2.39,10.46-5.48,22.23-4.63
			c0.5,15.84,0.99,31.69,1.49,47.53h29.76v-45.85c13.96-4.04,28.02-0.21,34.8,8.93c4.92,6.64,4.53,14.11,4.18,17.07
			c2.12,0.71,7.89,2.93,11.9,8.67c2.45,3.49,3.26,6.9,3.57,8.95c4.36-1.71,10.28-4.54,16.37-9.23c6.45-4.95,10.72-10.16,13.39-13.98
			c3.66-0.14,8.37,0.02,13.69,1.12c8.67,1.79,15.11,5.27,19.04,7.83c7.38-2.5,26.46-10.01,41.35-28.95
			c10.22-12.99,12.88-25.56,17.28-45.15c6.83-30.46,2.66-43.86,13.69-70.6c3.02-7.32,6.14-13.11,8.33-16.92
			c-8.69-3.33-30.4-10.34-57.13-5.03c-17.62,3.5-30.33,10.95-37.49,15.94c-5.98,5.64-14.08,14.58-20.23,27.12
			c-8.62,17.59-7.98,31.22-12.5,31.59c-3.83,0.32-7.61-9.19-16.07-31.45c-6.1-16.06-11.32-30.02-15.47-41.24
			C834.05,411.84,786.63,412.12,739.22,412.4z"/>
		<path class="st19" d="M942.02,429.22c1.89,2.36,4.04,5.48,5.89,9.37c2.47,5.17,3.56,9.87,4.07,13.37
			c2.74,0.57,6.6,1.09,11.21,0.79c5.14-0.33,9.25-1.56,12-2.61c-1.41,3.62-3.09,9.31-3.07,16.4c0.02,8.37,2.39,14.9,4.12,18.69
			c2.69,0.46,9.1,1.2,16.32-1.54c5.8-2.2,9.44-5.63,11.21-7.55c-0.28,2.87-0.29,7.16,1.29,12.02c3.03,9.35,9.94,14.67,12.71,16.59
			c2.29-13.37,3.95-24.2,5.02-31.39c2.66-17.92,3.14-23.57,5.8-32.42c3.54-11.75,8.38-20.73,11.78-26.3
			c-8.09-3.19-30.95-11.02-58.89-4.67C962,414.39,948.72,423.74,942.02,429.22z"/>
		<path class="st1" d="M735.75,445.42c5.12,20.85,11.84,43.57,20.73,67.63c6.84,18.51,14.16,35.61,21.56,51.23
			c1.63-4.63,5.46-13.1,13.07-15.51c3.06-0.97,7.91-1.33,11.65-1.61c3.38-0.25,6.2-0.29,8.18-0.28c-0.1-8.39-1.23-19.64-5.46-32.25
			c-5.5-16.44-13.69-27.51-16.56-31.22c-7.7-9.96-12.73-12.63-18.45-18.59c-8.64-9-17.77-24.36-18.86-52.13
			c-4.13-0.1-8.26-0.2-12.39-0.3C738.06,423.4,736.9,434.41,735.75,445.42z"/>
		<path class="st1" d="M895.48,448.98c0.5,17.14-0.46,38.21-5.1,61.84c-3.37,17.14-8,32.23-12.81,45
			c-1.84-2.12-6.35-6.75-13.97-9.21c-9.84-3.17-18.3-0.6-20.83,0.27c0.3-15,0.6-30.01,0.89-45.01c6.97-10.75,15.1-25.67,21.13-44.46
			c5.71-17.79,7.79-33.63,8.44-45.79c2.74-0.02,5.48-0.04,8.23-0.06C886.13,424.03,890.81,436.5,895.48,448.98z"/>
		<path class="st15" d="M751.61,410.14c-0.01,9.73-0.02,19.47-0.04,29.2c3.22,4.01,6.45,8.02,9.67,12.03
			c7.35,10.92,16.95,23.41,29.31,36.24c11.36,11.78,22.57,21.27,32.58,28.79c7.82-5.32,19.14-14.41,28.96-28.55
			c7.25-10.44,11.42-20.36,13.89-27.88c1.04-0.45,3.45-1.64,5.26-4.24c1.57-2.25,1.9-4.43,1.99-5.5c1.37-5.42,2.63-12.65,2.57-21.2
			c-0.06-8-1.26-14.8-2.57-19.99C832.69,409.41,792.15,409.78,751.61,410.14z"/>
		<path d="M724.51,563.73c-1.48-0.03-11.32-0.06-18.42,7.39c-8.67,9.1-5.18,20.91-4.96,21.62c19.94,0,39.87,0,59.81,0
			c-5.68-2.74-12.73-6.75-20.01-12.56C733.66,574.39,728.31,568.53,724.51,563.73z"/>
		<path d="M895.6,593.85c-0.43-3.07-0.58-8.14,2.12-13.23c4.75-8.93,16.31-14.18,29.26-13.33c4-0.17,9.84,0.01,16.56,1.77
			c7.31,1.91,12.75,4.93,16.17,7.18c-0.1,5.75-0.2,11.49-0.3,17.24C938.15,593.6,916.87,593.73,895.6,593.85z"/>
		<path class="st2" d="M701.63,578.23l13.98,14.51h-14.48c-0.48-1.73-0.95-4.17-0.87-7.09
			C700.34,582.53,701.01,579.99,701.63,578.23z"/>
		<polygon class="st2" points="774.33,592.73 779.29,581.55 796.15,581.55 801.71,592.73 		"/>
		<polygon class="st2" points="856.24,593.43 861.2,582.25 878.07,582.25 883.62,593.43 		"/>
		<path class="st4" d="M1049.63,420.1l6.57-10.78l-0.29-0.11l0.06-0.11l-11.77-4.51c-0.02-0.01-0.04-0.01-0.06-0.02
			c-12.94-5.09-27.14-7.77-41.08-7.77c-8.09,0-16.16,0.9-23.99,2.68c-0.07,0.02-0.14,0.03-0.21,0.05
			c-14.17,3.12-27.38,8.89-39.29,17.18l-0.66,0.46l-0.58,0.55c-1.23,1.16-2.43,2.35-3.6,3.56l-6.76,7.65
			c-4.8,5.96-8.87,12.31-12.15,19c-2.01,4.09-3.57,8.01-4.81,11.6c-1.36-3.49-2.75-7.15-4.04-10.54c-0.57-1.51-1.14-3.02-1.72-4.53
			l-8.62-22.99c6.08-1.59,11.9-3.7,17.43-6.35c6.17-2.96,20.61-9.89,26.49-23.19c0.53-1.2,2.36-5.58,3.64-11.48
			c0.85-3.94,1.26-7.62,1.48-13.57c0.02-0.41,0.02-0.83,0.03-1.24l0.63,0.19l-0.66-15.04c-0.5-11.39-0.5-22.75,0-33.78
			c0.56-12.36-0.35-32.74-0.87-35.38c-2.22-11.29-4.99-18.22-11.08-33.4c-1.01-2.51-2.11-5.26-3.33-8.32l-0.53-1.33
			c-2.85-7.18-4.58-11.52-7.99-17.6c-6.68-11.91-12.7-17.89-19.51-19.39c-1.35-0.3-2.73-0.45-4.13-0.45
			c-6.1,0-11.65,2.78-19.33,6.63c-7.78,3.9-12.97,7.52-13.19,7.67c-9.06,6.35-15.56,11.69-20.78,15.98
			c-7.97,6.56-12.36,10.17-19.11,12.02c-1.31,0.36-2.65,0.62-4.02,0.82l-21.68,0c-1.37-0.2-2.71-0.46-4.02-0.82
			c-6.75-1.85-11.14-5.46-19.11-12.02c-5.22-4.29-11.72-9.64-20.78-15.98c-0.22-0.15-5.41-3.77-13.19-7.67
			c-7.68-3.85-13.23-6.63-19.33-6.63c-1.39,0-2.78,0.15-4.13,0.45c-6.81,1.5-12.83,7.48-19.51,19.39
			c-3.41,6.09-5.14,10.42-7.99,17.6l-0.53,1.33c-1.22,3.06-2.32,5.82-3.33,8.33c-6.09,15.18-8.87,22.11-11.08,33.4
			c-0.52,2.63-1.43,23.01-0.87,35.37c0.37,8.17,0.46,16.53,0.28,24.95l-0.28,5.79c-0.15,3.06-0.24,6.12-0.27,9.15l-0.39,8.92
			l0.46-0.14c0.01,0.38,0.01,0.76,0.02,1.13c0.14,4.6,0.37,7.28,0.84,10.23c1.31,8.09,3.83,13.9,4.32,14.98
			c4.39,9.67,12.79,13.8,25.5,20.05l1.53,0.75c6.22,3.06,11.7,5.76,19.21,8l-2.66,25.33l0,0l-3.19,30.3
			c-7.2,4.5-17.37,12.93-22.81,26.79c-9.15,23.33,2.1,43.53,5.43,48.72c0.88,1.74,1.82,3.45,2.79,5.14
			c-2.21,1.15-4.43,2.62-6.56,4.48c-1.06,1.21-2.12,2.41-3.18,3.62c-1.86,2.88-3.71,5.75-5.57,8.63c-1.98,5-2.4,9.86-2.24,13.77
			c0.01,0.25,0.02,0.5,0.04,0.75c0.04,0.61,0.09,1.18,0.15,1.74c0.03,0.26,0.06,0.53,0.09,0.79c0.1,0.81,0.23,1.53,0.35,2.18
			c0,0.01,0.01,0.03,0.01,0.04c0.24,1.24,0.49,2.16,0.63,2.64l2.15,7.76h0.29h47.68h16.88h0.69l8.21,0.05l73.03,0.61l-0.02,0.04
			h5.32l41.21,0.34l0.02,0.13l2.23-0.01l0.12,0.78l2.03-0.79l4.94-0.03l10.78,0.09v-0.15l63.64-0.37l0.35-20.51
			c11.09-4.76,26.58-13.71,39.17-29.72c7.93-10.08,11.9-19.91,15.03-31.42l0.96,0.66l2.8-16.34c0.09-0.39,0.17-0.78,0.26-1.18
			l0.26-1.17c2.68-11.96,3.75-21.44,4.62-29.8c0.5-3.39,0.93-6.34,1.3-8.96c1.53-10.65,2.19-15.18,4.02-21.37
			c0.88-2.75,1.92-5.63,3.19-8.72C1044.16,430.34,1046.74,425.1,1049.63,420.1z"/>
		<path class="st2" d="M959.72,576.24c-1.13,0.22-6.77,1.45-10.41,6.62c-3.3,4.69-2.75,9.49-2.58,10.7
			c4.23-0.02,8.46-0.05,12.7-0.07L959.72,576.24z"/>
	</g>
	<g>
		<polygon points="760.94,592.73 760.94,537.56 895.6,537.56 895.6,593.85 		"/>
		<g>
			<g>
				<path class="st15" d="M811.07,414.16h-53.65c-5.83,0.1-14.17-0.31-23.76-2.78c-8.3-2.14-13.82-4.86-20.61-8.2
					c-12.55-6.18-19.07-9.17-21.99-15.6c-0.76-1.68-2.54-6.32-3.5-12.26c-0.37-2.28-0.57-4.46-0.71-8.85
					c-0.14-4.52-0.2-10.71,0.17-18.21c3.3-1.17,8.2-2.48,14.25-2.58c8.22-0.13,14.65,2.05,18.3,3.61
					c2.78,2.99,7.59,7.31,14.71,10.26c13.99,5.8,26.89,2.17,30.78,0.92c3.85,0.09,8.77-0.15,14.32-1.37
					c3.95-0.87,7.36-2.04,10.15-3.2c0.89,2.13,2.17,4.56,4.03,7.02c5.75,7.58,13.51,10.68,17.32,11.9
					C810.96,387.91,811.02,401.03,811.07,414.16z"/>
				<path class="st15" d="M810.73,414.16h53.65c10.38,0.35,27.78-0.46,45.05-8.75c5.77-2.77,17.12-8.36,21.3-17.84
					c0.55-1.25,1.97-4.79,2.97-9.42c0.67-3.08,1.03-6.07,1.24-11.7c0.18-4.65,0.24-10.83-0.17-18.21c-3.3-1.17-8.2-2.48-14.25-2.58
					c-8.22-0.13-14.65,2.05-18.3,3.61c-2.78,2.99-7.59,7.31-14.71,10.26c-13.99,5.8-26.89,2.17-30.78,0.92
					c-3.85,0.09-8.77-0.15-14.32-1.37c-3.95-0.87-7.36-2.04-10.15-3.2c-0.53,2.27-2.01,7.17-6.35,11.6c-5.79,5.9-12.82,7.05-15,7.32
					C810.84,387.91,810.79,401.03,810.73,414.16z"/>
			</g>
			<g>
				<path class="st1" d="M810.9,346.87v-91.76c8.17,0.83,14.16-0.32,17.79-1.31c14.35-3.94,19.99-13.3,43.21-29.57
					c0,0,4.68-3.27,11.84-6.86c8.22-4.12,12.41-6.16,16.33-5.3c1.21,0.27,5.29,1.4,12.44,14.15c3.25,5.8,4.78,9.78,7.91,17.64
					c8.45,21.23,11.49,27.78,13.85,39.82c0.21,1.05,1.25,20.19,0.68,32.82c-0.38,8.32-0.64,20.19,0,34.74
					c-2.73-0.8-5.98-1.56-9.69-2.04c-2.85-0.37-5.48-0.51-7.81-0.53c-1.82,0.03-3.99,0.21-6.37,0.67c-3.6,0.7-6.53,1.84-8.68,2.88
					c11.1-14.83,11.64-33.84,1.68-47.29c-10.57-14.27-28.36-16.08-31.15-16.32c-3.47,0.03-14.51,0.54-24.24,8.23
					c-8.2,6.48-10.89,14.44-12.2,18.49c-1.2,3.71-4.66,15.07,1.03,27.83c5.54,12.41,16.17,18.15,19.38,19.73
					c-8.22-1.46-16.43-2.91-24.65-4.37c0.12-0.9,0.06-1.7-0.13-2.4C830.77,350.91,822.15,347.53,810.9,346.87z"/>
				<path class="st1" d="M811.07,346.87v-91.76c-8.17,0.83-14.16-0.32-17.79-1.31c-14.35-3.94-19.99-13.3-43.21-29.57
					c0,0-4.68-3.27-11.84-6.86c-8.22-4.12-12.41-6.16-16.33-5.3c-1.21,0.27-5.29,1.4-12.44,14.15c-3.25,5.8-4.78,9.78-7.91,17.64
					c-8.45,21.23-11.49,27.78-13.85,39.82c-0.21,1.05-1.25,20.19-0.68,32.82c0.38,8.32,0.64,20.19,0,34.74
					c2.73-0.8,5.98-1.56,9.69-2.04c2.85-0.37,5.48-0.51,7.81-0.53c1.82,0.03,3.99,0.21,6.37,0.67c3.6,0.7,6.53,1.84,8.68,2.88
					c-11.1-14.83-11.64-33.84-1.68-47.29c10.57-14.27,28.36-16.08,31.15-16.32c3.47,0.03,14.51,0.54,24.24,8.23
					c8.2,6.48,10.89,14.44,12.2,18.49c1.2,3.71,4.66,15.07-1.03,27.83c-5.54,12.41-16.17,18.15-19.38,19.73
					c8.22-1.46,16.43-2.91,24.65-4.37c-0.12-0.9-0.06-1.7,0.13-2.4C791.2,350.91,799.83,347.53,811.07,346.87z"/>
			</g>
			<g>
				<ellipse class="st2" cx="749.35" cy="328.92" rx="40.17" ry="41.54"/>
				<ellipse class="st2" cx="873.01" cy="328.92" rx="40.17" ry="41.54"/>
			</g>
			<g>
				<path class="st15" d="M711.04,289.19c-0.24-8.68,0-19.73,1.71-31.46c0,0,1.07-7.35,5.62-17.65c2.2-4.99,3.45-6.51,5.24-7.11
					c2.57-0.87,6.33,0.13,14.73,7.57c5.28,4.69,12.44,11.97,19.38,22.57c-6.45,1.7-14.63,4.49-23.41,9.18
					C723.86,277.87,716.22,284.19,711.04,289.19z"/>
				<path class="st15" d="M911.11,289.19c0.24-8.68,0-19.73-1.71-31.46c0,0-1.07-7.35-5.62-17.65c-2.2-4.99-3.45-6.51-5.24-7.11
					c-2.57-0.87-6.33,0.13-14.73,7.57c-5.28,4.69-12.44,11.97-19.38,22.57c6.45,1.7,14.63,4.49,23.41,9.18
					C898.29,277.87,905.93,284.19,911.11,289.19z"/>
			</g>
			<g>
				<path class="st16" d="M810.9,376.58v-29.71c1.98,0.05,15.89,0.56,20.23,8.3c0.34,0.61,0.97,1.75,1.12,3.35
					c0.64,6.5-7.38,11.72-10.08,13.47C819.96,373.44,816.22,375.46,810.9,376.58z"/>
				<path class="st16" d="M810.9,376.58v-29.71c-1.98,0.05-15.89,0.56-20.23,8.3c-0.34,0.61-0.97,1.75-1.12,3.35
					c-0.64,6.5,7.38,11.72,10.08,13.47C801.85,373.44,805.59,375.46,810.9,376.58z"/>
			</g>
			<ellipse class="st17" cx="805.98" cy="354.46" rx="7.13" ry="3.33"/>
			<ellipse class="st16" cx="752.89" cy="328.83" rx="19.92" ry="23.58"/>
			<ellipse class="st16" cx="868.99" cy="328.83" rx="19.92" ry="23.58"/>
		</g>
		<path class="st14" d="M739.22,412.4c-2.48,23.58-4.96,47.16-7.44,70.74c-3.37,1.63-16.85,8.6-22.91,24.04
			c-7.84,19.99,3.36,37.33,4.76,39.42c3.47,6.97,9.56,17.1,19.94,27.12c10.01,9.66,20.21,15.56,27.38,19.01
			c2.64-3.99,6.82-10.48,11.61-18.73c8.48-14.63,10.25-19.93,16.75-24.17c3.67-2.39,10.46-5.48,22.23-4.63
			c0.5,15.84,0.99,31.69,1.49,47.53h29.76v-45.85c13.96-4.04,28.02-0.21,34.8,8.93c4.92,6.64,4.53,14.11,4.18,17.07
			c2.12,0.71,7.89,2.93,11.9,8.67c2.45,3.49,3.26,6.9,3.57,8.95c4.36-1.71,10.28-4.54,16.37-9.23c6.45-4.95,10.72-10.16,13.39-13.98
			c3.66-0.14,8.37,0.02,13.69,1.12c8.67,1.79,15.11,5.27,19.04,7.83c7.38-2.5,26.46-10.01,41.35-28.95
			c10.22-12.99,12.88-25.56,17.28-45.15c6.83-30.46,2.66-43.86,13.69-70.6c3.02-7.32,6.14-13.11,8.33-16.92
			c-8.69-3.33-30.4-10.34-57.13-5.03c-17.62,3.5-30.33,10.95-37.49,15.94c-5.98,5.64-14.08,14.58-20.23,27.12
			c-8.62,17.59-7.98,31.22-12.5,31.59c-3.83,0.32-7.61-9.19-16.07-31.45c-6.1-16.06-11.32-30.02-15.47-41.24
			C834.05,411.84,786.63,412.12,739.22,412.4z"/>
		<path class="st19" d="M942.02,429.22c1.89,2.36,4.04,5.48,5.89,9.37c2.47,5.17,3.56,9.87,4.07,13.37
			c2.74,0.57,6.6,1.09,11.21,0.79c5.14-0.33,9.25-1.56,12-2.61c-1.41,3.62-3.09,9.31-3.07,16.4c0.02,8.37,2.39,14.9,4.12,18.69
			c2.69,0.46,9.1,1.2,16.32-1.54c5.8-2.2,9.44-5.63,11.21-7.55c-0.28,2.87-0.29,7.16,1.29,12.02c3.03,9.35,9.94,14.67,12.71,16.59
			c2.29-13.37,3.95-24.2,5.02-31.39c2.66-17.92,3.14-23.57,5.8-32.42c3.54-11.75,8.38-20.73,11.78-26.3
			c-8.09-3.19-30.95-11.02-58.89-4.67C962,414.39,948.72,423.74,942.02,429.22z"/>
		<g>
			<path class="st1" d="M735.75,445.42c5.12,20.85,11.84,43.57,20.73,67.63c6.84,18.51,14.16,35.61,21.56,51.23
				c1.63-4.63,5.46-13.1,13.07-15.51c3.06-0.97,7.91-1.33,11.65-1.61c3.38-0.25,6.2-0.29,8.18-0.28c-0.1-8.39-1.23-19.64-5.46-32.25
				c-5.5-16.44-13.69-27.51-16.56-31.22c-7.7-9.96-12.73-12.63-18.45-18.59c-8.64-9-17.77-24.36-18.86-52.13
				c-4.13-0.1-8.26-0.2-12.39-0.3C738.06,423.4,736.9,434.41,735.75,445.42z"/>
			<path class="st1" d="M895.48,448.98c0.5,17.14-0.46,38.21-5.1,61.84c-3.37,17.14-8,32.23-12.81,45
				c-1.84-2.12-6.35-6.75-13.97-9.21c-9.84-3.17-18.3-0.6-20.83,0.27c0.3-15,0.6-30.01,0.89-45.01
				c6.97-10.75,15.1-25.67,21.13-44.46c5.71-17.79,7.79-33.63,8.44-45.79c2.74-0.02,5.48-0.04,8.23-0.06
				C886.13,424.03,890.81,436.5,895.48,448.98z"/>
		</g>
		<path class="st15" d="M751.61,410.14c-0.01,9.73-0.02,19.47-0.04,29.2c3.22,4.01,6.45,8.02,9.67,12.03
			c7.35,10.92,16.95,23.41,29.31,36.24c11.36,11.78,22.57,21.27,32.58,28.79c7.82-5.32,19.14-14.41,28.96-28.55
			c7.25-10.44,11.42-20.36,13.89-27.88c1.04-0.45,3.45-1.64,5.26-4.24c1.57-2.25,1.9-4.43,1.99-5.5c1.37-5.42,2.63-12.65,2.57-21.2
			c-0.06-8-1.26-14.8-2.57-19.99C832.69,409.41,792.15,409.78,751.61,410.14z"/>
		<path d="M724.51,563.73c-1.48-0.03-11.32-0.06-18.42,7.39c-8.67,9.1-5.18,20.91-4.96,21.62c19.94,0,39.87,0,59.81,0
			c-5.68-2.74-12.73-6.75-20.01-12.56C733.66,574.39,728.31,568.53,724.51,563.73z"/>
		<path d="M895.6,593.85c-0.43-3.07-0.58-8.14,2.12-13.23c4.75-8.93,16.31-14.18,29.26-13.33c4-0.17,9.84,0.01,16.56,1.77
			c7.31,1.91,12.75,4.93,16.17,7.18c-0.1,5.75-0.2,11.49-0.3,17.24C938.15,593.6,916.87,593.73,895.6,593.85z"/>
		<path class="st2" d="M701.63,578.23l13.98,14.51h-14.48c-0.48-1.73-0.95-4.17-0.87-7.09
			C700.34,582.53,701.01,579.99,701.63,578.23z"/>
		<polygon class="st2" points="774.33,592.73 779.29,581.55 796.15,581.55 801.71,592.73 		"/>
		<polygon class="st2" points="856.24,593.43 861.2,582.25 878.07,582.25 883.62,593.43 		"/>
		<path class="st2" d="M959.72,576.24c-1.13,0.22-6.77,1.45-10.41,6.62c-3.3,4.69-2.75,9.49-2.58,10.7
			c4.23-0.02,8.46-0.05,12.7-0.07L959.72,576.24z"/>
	</g>
</g>
<g>
	<defs>
		<circle id="SVGID_1_" cx="124.37" cy="178.92" r="77.94"/>
	</defs>
	<clipPath id="SVGID_2_">
		<use xlink:href="#SVGID_1_"  style="overflow:visible;"/>
	</clipPath>
	<g class="st20">
		<ellipse cx="124.37" cy="171.75" rx="34.16" ry="35.32"/>
		<path d="M183.75,275H64.98v-10.87c0-32.8,26.59-59.39,59.39-59.39h0c32.8,0,59.39,26.59,59.39,59.39V275z"/>
	</g>
</g>
<g>
	<text transform="matrix(1 0 0 1 223.9711 153.0688)" class="st2 st8 st21">Hello, Riko!</text>
	<path class="st3" d="M427.6,244.59H249.08c-12,0-21.74-9.73-21.74-21.74v-13.8c0-12,9.73-21.74,21.74-21.74H427.6
		c12,0,21.74,9.73,21.74,21.74v13.8C449.34,234.86,439.61,244.59,427.6,244.59z"/>
	<g>
		<g>
			<circle class="st22" cx="261.13" cy="213.69" r="20.51"/>
			<circle class="st23" cx="261.13" cy="213.69" r="18.51"/>
		</g>
		<path class="st22" d="M263.19,201.25l2.65,5.36c0.33,0.68,0.98,1.14,1.72,1.25l5.92,0.86c1.88,0.27,2.63,2.58,1.27,3.9l-4.28,4.18
			c-0.54,0.53-0.79,1.28-0.66,2.03l1.01,5.9c0.32,1.87-1.64,3.3-3.32,2.41l-5.3-2.78c-0.67-0.35-1.46-0.35-2.13,0l-5.3,2.78
			c-1.68,0.88-3.64-0.54-3.32-2.41l1.01-5.9c0.13-0.74-0.12-1.5-0.66-2.03l-4.28-4.18c-1.36-1.32-0.61-3.63,1.27-3.9l5.92-0.86
			c0.75-0.11,1.39-0.58,1.72-1.25l2.65-5.36C259.92,199.55,262.35,199.55,263.19,201.25z"/>
	</g>
	<g>
		<text transform="matrix(1 0 0 1 290.2297 228.6611)" class="st2 st12 st24">Level 5</text>
	</g>
</g>
<g>
	<path class="st25" d="M85.76,369.11c-2.83-0.59-5.37-1.8-7.72-3.45c-1.75-1.23-2.99-2.93-4.31-4.55c-1.96-2.41-3.69-4.96-4.74-7.92
		c-0.68-1.93-1.09-3.92-1.21-5.97c-0.39-6.64,1.83-12.43,5.73-17.68c0.04-0.06,0.05-0.15,0.15-0.18c-0.04,3.13,0.88,5.84,2.95,8.16
		c-0.07-0.57-0.18-1.14-0.22-1.72c-0.37-5.39,1.23-10.18,4.55-14.39c3.12-3.95,7.18-6.69,11.7-8.79c1.1-0.51,2.22-0.99,3.42-1.41
		c-0.03,0.1-0.04,0.15-0.07,0.19c-2.16,2.63-2.62,5.68-2.24,8.95c0.4,3.44,1.98,6.42,3.68,9.35c1.57,2.71,3.28,5.33,4.59,8.18
		c0.92,2,1.64,4.07,1.77,6.29c0.01,0.12,0.01,0.26,0.16,0.39c2.26-4.11,4.43-8.23,3.51-13.26c0.85,0.99,1.52,2.02,2.09,3.1
		c1.45,2.73,2.06,5.68,2.24,8.74c0.14,2.41,0.06,4.81-0.24,7.2c-0.54,4.28-1.57,8.4-4.23,11.93c-1.9,2.52-4.34,4.36-7.12,5.81
		c-2.12,1.1-4.35,1.59-6.72,1.6c-0.5,0.07-1,0.07-1.5,0c-0.02-0.38,0.31-0.32,0.51-0.38c1.8-0.48,3.41-1.33,4.82-2.55
		c2.41-2.1,3.94-4.71,4.32-7.9c0.26-2.14-0.04-4.23-1.08-6.16c-0.09-0.17-0.18-0.33-0.2-0.46c0.19,2.18,0.05,4.39-0.71,6.53
		c-0.37,1.05-0.9,2.02-1.59,2.9c-0.11,0.14-0.22,0.26-0.36,0.37c-0.13,0.1-0.26,0.28-0.44,0.16c-0.17-0.11-0.09-0.32-0.05-0.48
		c0.82-2.82,0.11-5.44-1.06-7.99c-0.87-1.88-2.04-3.58-3.21-5.28c-1.25-1.83-2.48-3.67-3.35-5.72c-0.86-2.02-1.31-4.1-1-6.45
		c-0.78,0.5-1.31,1.08-1.82,1.67c-2.25,2.55-3.65,5.5-3.99,8.89c-0.26,2.64,0.08,5.22,1.06,7.7c0.11,0.28,0.41,0.67,0.08,0.87
		c-0.28,0.17-0.58-0.2-0.8-0.42c-1.25-1.32-2.12-2.84-2.38-4.8c-0.62,0.82-1.14,1.58-1.54,2.41c-0.83,1.73-1.31,3.55-1.28,5.47
		c0.04,2.82,1.12,5.23,3.02,7.29c1.29,1.41,2.81,2.52,4.55,3.31c0.16,0.07,0.31,0.14,0.42,0.29
		C85.91,369.07,85.9,369.15,85.76,369.11z"/>
	<path class="st26" d="M85.88,369c-3.89-1.7-6.71-4.4-7.82-8.6c-0.64-2.42-0.27-4.79,0.65-7.09c0.5-1.23,1.22-2.32,2.1-3.48
		c0.3,2.32,1.28,4.18,3.19,5.72c-2.93-7.69-1.44-14.17,4.65-19.52c0,0.53,0,1.05-0.02,1.57c-0.09,1.94,0.48,3.72,1.26,5.46
		c0.97,2.17,2.36,4.09,3.67,6.05c1.1,1.65,2.22,3.29,2.98,5.14c1.02,2.48,1.63,4.9,0.73,7.88c0.96-0.53,2.09-2.59,2.61-4.71
		c0.44-1.81,0.42-3.65,0.38-5.5c1.77,2.89,2.12,5.98,1.03,9.16c-1.55,4.48-4.63,7.39-9.31,8.5c-0.27,0.22-0.62,0.11-0.92,0.2
		c-1.52,0.1-3.01-0.08-4.48-0.46C86.34,369.2,86.06,369.21,85.88,369z"/>
</g>
<g>
	<text transform="matrix(1 0 0 1 124.2571 359.3237)" class="st2 st12 st29">12</text>
</g>
<g>
	<text transform="matrix(1 0 0 1 323.2118 358.687)" class="st2 st12 st29">450</text>
</g>
<g>
	<path class="st30" d="M284.91,314.1l5.59,11.32c0.7,1.43,2.06,2.41,3.64,2.64l12.5,1.82c3.96,0.58,5.54,5.45,2.68,8.24l-9.04,8.81
		c-1.14,1.11-1.66,2.71-1.39,4.28l2.13,12.45c0.68,3.95-3.47,6.96-7.01,5.09l-11.18-5.88c-1.41-0.74-3.09-0.74-4.5,0l-11.18,5.88
		c-3.54,1.86-7.69-1.15-7.01-5.09l2.13-12.45c0.27-1.57-0.25-3.17-1.39-4.28l-9.04-8.81c-2.87-2.79-1.29-7.66,2.68-8.24l12.5-1.82
		c1.57-0.23,2.93-1.22,3.64-2.64l5.59-11.32C278.02,310.51,283.14,310.51,284.91,314.1z"/>
	<text transform="matrix(1 0 0 1 265.3689 350.9077)" class="st31 st12 st32">XP</text>
</g>
<g>
	<path class="st33" d="M1080,1919.17H0v-103.24c0-46.9,38.02-84.92,84.92-84.92h910.17c46.9,0,84.92,38.02,84.92,84.92V1919.17z"/>
	<g>
		<g>
			<text transform="matrix(1 0 0 1 526.0416 1891.4926)" class="st1 st8 st32">Home</text>
			<path class="st1" d="M592.5,1819.19c-0.38,1.14-0.9,2.2-1.81,3.03c-1.17,1.07-2.53,1.63-4.12,1.66c-0.32,0-0.65,0-1.09,0
				c0,0.28,0,0.52,0,0.77c0,6.37,0.01,12.74,0,19.11c-0.01,3.49-2.22,6.3-5.55,7.08c-0.58,0.14-1.2,0.19-1.8,0.19
				c-3.38,0.02-6.76,0.01-10.14,0.01c-1.47,0-2.25-0.77-2.25-2.24c0-4.98-0.06-9.97,0.02-14.95c0.03-2.19-1.48-3.79-3.71-3.72
				c-1.8,0.06-3.6,0.07-5.39,0c-2.2-0.08-3.78,1.46-3.74,3.75c0.08,4.92,0.03,9.84,0.03,14.76c0,1.69-0.72,2.4-2.42,2.4
				c-3.29,0-6.59,0-9.88,0c-4.36-0.01-7.44-3.08-7.45-7.45c-0.01-6.28,0-12.57,0-18.85c0-0.26,0-0.51,0-0.8
				c-0.75-0.06-1.47-0.06-2.15-0.2c-2.32-0.45-3.9-1.83-4.65-4.06c-0.74-2.2-0.28-4.23,1.23-6c0.17-0.2,0.36-0.38,0.54-0.56
				c8.86-8.86,17.7-17.72,26.58-26.55c0.69-0.68,1.54-1.37,2.44-1.65c2.28-0.72,4.5-0.55,6.35,1.22c1.13,1.08,2.22,2.2,3.32,3.3
				c7.69,7.69,15.38,15.39,23.08,23.07c1.12,1.12,2.13,2.27,2.57,3.82C592.5,1817.28,592.5,1818.23,592.5,1819.19z"/>
		</g>
		<g>
			<text transform="matrix(1 0 0 1 90.5543 1891.4933)" class="st2 st8 st32">AI Tutor</text>
			<g>
				<path class="st2" d="M132.96,1851.04c-5.95,0-11.9,0.02-17.85-0.02c-0.91-0.01-1.86-0.14-2.72-0.42
					c-2.63-0.84-4.39-3.28-4.39-6.04c-0.01-11.23-0.02-22.46,0-33.69c0.01-3.54,2.96-6.4,6.51-6.41c5.14-0.01,10.28-0.02,15.42,0.01
					c0.71,0,0.92-0.2,0.88-0.89c-0.06-1.11-0.04-2.22,0-3.33c0.02-0.54-0.14-0.81-0.66-1.03c-2.52-1.05-4.18-2.9-4.69-5.6
					c-0.95-5.1,2.92-8.71,6.7-9.07c4.43-0.42,7.65,2.8,8.31,6.09c0.7,3.5-1.14,7.09-4.56,8.53c-0.62,0.26-0.84,0.56-0.8,1.21
					c0.05,1.02,0.01,2.04,0.01,3.06c0,1.02,0,1.02,0.99,1.02c5.05,0,10.09,0,15.14,0c3.78,0,6.66,2.83,6.67,6.6
					c0.02,11.09-0.03,22.18,0.03,33.28c0.02,3.53-2.85,6.44-5.96,6.59c-0.58,0.03-1.15,0.1-1.73,0.1
					C144.49,1851.04,138.73,1851.04,132.96,1851.04z M132.91,1846.72c6.04,0,12.09,0,18.13,0c1.81,0,2.67-0.86,2.67-2.68
					c0-6.07,0-12.14,0-18.2c0-4.86-0.01-9.73,0-14.59c0-1-0.37-1.8-1.26-2.22c-0.52-0.25-1.16-0.32-1.75-0.32
					c-11.83-0.02-23.67-0.01-35.5-0.01c-0.19,0-0.37,0-0.56,0.01c-1.56,0.09-2.46,1.03-2.46,2.59c0,10.96,0.01,21.91-0.02,32.86
					c0,1.39,1.02,2.6,2.6,2.59C120.82,1846.68,126.87,1846.72,132.91,1846.72z M132.97,1788.78c-1.92,0-3.4,1.44-3.41,3.34
					c-0.01,1.94,1.47,3.45,3.38,3.45c1.92,0,3.41-1.5,3.41-3.43C136.35,1790.24,134.88,1788.78,132.97,1788.78z"/>
				<path class="st2" d="M132.97,1837.58c-3.94-0.19-7.62-1.07-10.94-3.23c-0.88-0.57-1.25-1.44-1.02-2.3
					c0.38-1.45,1.9-2.13,3.17-1.33c1.91,1.2,3.96,1.96,6.2,2.28c3.9,0.54,7.6,0,11-2.08c0.72-0.44,1.43-0.65,2.23-0.36
					c0.82,0.3,1.28,0.95,1.35,1.78c0.07,0.8-0.28,1.49-0.97,1.95c-1.84,1.24-3.86,2.12-6.03,2.56
					C136.31,1837.18,134.63,1837.34,132.97,1837.58z"/>
				<path class="st2" d="M121.96,1820.55c0.23-0.6,0.37-1.27,0.72-1.79c0.51-0.75,1.36-0.85,2.19-0.61c0.85,0.25,1.36,0.9,1.46,1.77
					c0.07,0.59,0.05,1.21-0.08,1.78c-0.24,1.1-1.18,1.67-2.36,1.55c-0.95-0.1-1.7-0.95-1.75-2.01c-0.01-0.21,0-0.42,0-0.62
					C122.08,1820.6,122.02,1820.58,121.96,1820.55z"/>
				<path class="st2" d="M143.83,1820.68c-0.06,0.43-0.06,0.88-0.2,1.29c-0.3,0.87-1.08,1.33-2.07,1.3
					c-0.84-0.03-1.68-0.59-1.85-1.41c-0.14-0.69-0.18-1.43-0.07-2.12c0.19-1.16,1.14-1.76,2.34-1.66c0.99,0.08,1.74,0.94,1.79,2.04
					c0.01,0.18,0,0.37,0,0.56C143.79,1820.68,143.81,1820.68,143.83,1820.68z"/>
			</g>
		</g>
		<g>
			<text transform="matrix(1 0 0 1 722.3757 1891.4924)" class="st2 st8 st32">Game</text>
			<g>
				<path class="st2" d="M790.68,1829.43c0,5.65,0,11.3,0,16.95c-0.05,0.19-0.11,0.38-0.16,0.56c-0.58,2.19-1.93,3.67-4.06,4.43
					c-0.35,0.12-0.72,0.2-1.08,0.3c-0.57,0-1.15,0-1.72,0c-0.1-0.04-0.19-0.1-0.29-0.12c-1.83-0.39-3.2-1.4-4.14-3.02
					c-0.39-0.67-0.78-1.33-1.12-2.02c-0.26-0.55-0.55-0.8-1.2-0.58c-0.42,0.14-0.92,0.09-1.38,0.09c-4.17,0.01-8.33,0-12.5,0
					c-0.79,0-1.74-0.24-2.33,0.11c-0.61,0.37-0.89,1.31-1.28,2.02c-0.64,1.19-1.48,2.2-2.72,2.8c-0.65,0.31-1.36,0.49-2.04,0.73
					c-0.57,0-1.15,0-1.72,0c-0.08-0.04-0.15-0.09-0.23-0.11c-2.71-0.63-4.33-2.31-4.86-5.04c-0.03-0.16-0.08-0.33-0.13-0.51
					c-0.3,0-0.57,0-0.83,0c-6.04,0-12.09,0.01-18.13,0c-3.47-0.01-5.86-2.42-5.86-5.87c0-16.79,0-33.57,0-50.36
					c0-3.45,2.43-5.88,5.86-5.88c15.68,0,31.36,0,47.04,0.01c0.55,0,1.11,0.06,1.63,0.2c2.58,0.67,4.2,2.91,4.2,5.78
					c0,9.79,0,19.59,0,29.38c0,0.28,0,0.56,0,0.82c3.88,0.71,6.64,2.77,8.18,6.31C790.25,1827.35,790.41,1828.42,790.68,1829.43z
					 M747.78,1843.75c0-0.35,0-0.61,0-0.87c0.01-4.3-0.11-8.61,0.05-12.9c0.17-4.4,2.43-7.57,6.52-9.2c4.02-1.6,7.64-0.67,10.8,2.25
					c0.24,0.22,0.64,0.39,0.97,0.39c2.05,0.04,4.1,0.01,6.15,0.03c0.45,0.01,0.78-0.12,1.1-0.45c1.48-1.51,3.28-2.45,5.36-2.79
					c0.59-0.1,0.68-0.32,0.68-0.84c-0.01-7.81-0.01-15.62-0.01-23.43c0-0.23-0.02-0.47-0.03-0.72c-18.1,0-36.12,0-54.2,0
					c0,0.29,0,0.53,0,0.77c0,14.65,0.02,29.3-0.02,43.94c-0.01,2.11,1.41,3.88,3.87,3.85c5.98-0.08,11.95-0.03,17.93-0.03
					C747.19,1843.75,747.43,1843.75,747.78,1843.75z M788.43,1836.79c-0.06-0.03-0.12-0.07-0.17-0.1c-0.12,0.17-0.22,0.38-0.38,0.51
					c-0.75,0.61-1.49,1.23-2.27,1.8c-0.44,0.32-0.99,0.3-1.32-0.12c-0.23-0.31-0.35-0.81-0.3-1.19c0.04-0.27,0.41-0.55,0.69-0.74
					c2.78-1.91,4.08-4.5,3.62-7.88c-0.52-3.87-4.29-6.97-8.16-6.76c-3.36,0.19-6.14,2.38-7.2,5.69c-0.27,0.85-0.81,1.22-1.5,1.02
					c-0.66-0.19-0.93-0.83-0.66-1.68c0.17-0.53,0.37-1.05,0.56-1.59c-1.44,0-2.81,0-4.22,0c0.23,0.69,0.49,1.32,0.65,1.97
					c0.15,0.6-0.21,1.14-0.75,1.3c-0.57,0.17-1.12-0.08-1.37-0.63c-0.1-0.22-0.16-0.46-0.24-0.69c-1.22-3.64-4.89-5.87-8.67-5.28
					c-5.88,0.92-8.7,7.9-5.06,12.59c0.61,0.78,1.46,1.39,2.25,2.01c0.76,0.61,0.77,1.67-0.07,1.97c-0.35,0.13-0.91,0.06-1.22-0.15
					c-0.9-0.61-1.72-1.33-2.58-2.03c-0.01,0.09-0.02,0.22-0.02,0.34c0,2.8,0,5.6,0,8.4c0,0.28,0.03,0.58,0.09,0.85
					c0.38,1.6,1.63,2.73,3.26,2.97c1.5,0.22,3.03-0.53,3.84-1.95c1.38-2.43,2.74-4.88,4.09-7.33c0.74-1.35,1.84-2,3.39-1.99
					c3,0.02,6,0.03,9,0c1.6-0.02,2.72,0.66,3.48,2.06c1.28,2.36,2.6,4.7,3.92,7.05c0.99,1.76,2.68,2.53,4.49,2.05
					c1.74-0.46,2.84-1.99,2.84-3.98c0-2.45,0-4.9,0-7.35C788.43,1837.56,788.43,1837.17,788.43,1836.79z M725.18,1792.87
					c18.1,0,36.13,0,54.22,0c0-0.97,0-1.89,0-2.81c0-2.58-1.33-3.91-3.91-3.91c-15.49,0-30.97,0-46.46,0
					c-0.22,0-0.44-0.01-0.66,0.01c-1.7,0.11-3.1,1.45-3.18,3.15C725.13,1790.47,725.18,1791.64,725.18,1792.87z M776.55,1843.71
					c-0.58-1.02-1.07-1.97-1.65-2.86c-0.16-0.24-0.59-0.43-0.9-0.43c-3.2-0.03-6.39-0.03-9.59,0c-0.29,0-0.7,0.17-0.85,0.4
					c-0.59,0.92-1.1,1.88-1.67,2.9C766.81,1843.71,771.62,1843.71,776.55,1843.71z"/>
				<path class="st2" d="M766.61,1808.83c-2.26-2.26-4.39-4.37-6.51-6.49c-0.2-0.2-0.41-0.4-0.61-0.61
					c-0.54-0.58-0.56-1.22-0.06-1.69c0.46-0.44,1.13-0.41,1.65,0.1c2.58,2.57,5.15,5.13,7.72,7.71c0.6,0.6,0.59,1.19-0.01,1.79
					c-2.55,2.56-5.1,5.12-7.67,7.67c-0.59,0.59-1.26,0.61-1.74,0.1c-0.46-0.49-0.43-1.12,0.15-1.69c2.14-2.16,4.3-4.31,6.45-6.45
					C766.14,1809.11,766.37,1808.99,766.61,1808.83z"/>
				<path class="st2" d="M738.07,1808.74c2.26,2.26,4.46,4.46,6.65,6.66c0.17,0.17,0.35,0.34,0.5,0.53
					c0.37,0.47,0.33,1.11-0.07,1.51c-0.42,0.41-1.01,0.44-1.5,0.07c-0.12-0.09-0.23-0.21-0.34-0.32c-2.46-2.46-4.93-4.93-7.39-7.4
					c-0.79-0.79-0.79-1.29-0.01-2.08c2.48-2.48,4.96-4.96,7.44-7.44c0.17-0.17,0.35-0.36,0.56-0.45c0.52-0.21,1-0.12,1.36,0.35
					c0.35,0.46,0.31,1.03-0.15,1.5c-0.97,1-1.96,1.97-2.94,2.95C740.83,1805.98,739.47,1807.34,738.07,1808.74z"/>
				<path class="st2" d="M749.02,1817.77c-0.95,0.03-1.47-0.8-1.1-1.69c0.74-1.77,1.5-3.52,2.26-5.29
					c1.44-3.36,2.87-6.72,4.33-10.08c0.13-0.29,0.31-0.6,0.55-0.79c0.4-0.31,0.89-0.28,1.29,0.03c0.48,0.37,0.56,0.87,0.32,1.42
					c-0.83,1.94-1.67,3.89-2.5,5.83c-1.37,3.2-2.74,6.39-4.11,9.6C749.83,1817.34,749.54,1817.73,749.02,1817.77z"/>
				<path class="st2" d="M759.05,1831.33c0,0.78,0.01,1.46,0,2.14c-0.01,0.76-0.49,1.27-1.15,1.25c-0.64-0.02-1.08-0.51-1.1-1.24
					c-0.01-0.68,0-1.36,0-2.15c-0.62,0-1.2,0-1.79,0c-1.07,0-1.61-0.39-1.59-1.14c0.01-0.75,0.55-1.12,1.63-1.12
					c0.55,0,1.1,0,1.75,0c0-0.7-0.01-1.38,0-2.05c0.01-0.84,0.44-1.32,1.15-1.31c0.68,0.01,1.09,0.48,1.1,1.29
					c0.01,0.66,0,1.32,0,2.07c0.7,0,1.36-0.01,2.01,0c0.87,0.01,1.41,0.47,1.38,1.17c-0.02,0.68-0.52,1.08-1.38,1.09
					C760.42,1831.34,759.79,1831.33,759.05,1831.33z"/>
				<path class="st2" d="M772.04,1835.84c-1.12,0.02-1.67-0.35-1.68-1.11c0-0.76,0.54-1.14,1.67-1.14c0.22,0,0.44-0.01,0.66,0.02
					c0.65,0.08,1.07,0.54,1.05,1.14c-0.02,0.57-0.42,1-1.04,1.08C772.48,1835.86,772.26,1835.84,772.04,1835.84z"/>
				<path class="st2" d="M766.34,1835.88c-0.26-0.03-0.53-0.02-0.78-0.08c-0.56-0.15-0.85-0.53-0.83-1.11
					c0.02-0.55,0.31-0.94,0.85-1.02c0.49-0.08,1.01-0.07,1.51-0.03c0.62,0.05,0.99,0.51,0.99,1.11c0,0.59-0.38,1.02-1.01,1.1
					c-0.24,0.03-0.48,0-0.72,0C766.34,1835.85,766.34,1835.87,766.34,1835.88z"/>
				<path class="st2" d="M777.65,1831.32c-1.12,0.01-1.67-0.37-1.65-1.14c0.02-0.74,0.57-1.11,1.63-1.11c0.26,0,0.53-0.01,0.79,0.04
					c0.6,0.11,0.99,0.6,0.96,1.16c-0.03,0.57-0.46,1-1.07,1.05C778.09,1831.33,777.87,1831.32,777.65,1831.32z"/>
				<path class="st2" d="M779.41,1832.98c-0.01-1.09,0.34-1.62,1.08-1.64c0.77-0.02,1.17,0.53,1.17,1.64c0,0.26,0.01,0.53-0.04,0.79
					c-0.11,0.6-0.61,0.98-1.17,0.95c-0.58-0.04-0.99-0.46-1.04-1.08C779.39,1833.42,779.41,1833.2,779.41,1832.98z"/>
				<path class="st2" d="M779.4,1827.34c0-0.13,0-0.26,0-0.4c0.03-0.77,0.42-1.22,1.08-1.24c0.68-0.02,1.14,0.45,1.18,1.22
					c0.01,0.29,0.01,0.57,0,0.86c-0.03,0.8-0.45,1.27-1.13,1.27c-0.69,0-1.1-0.46-1.13-1.25
					C779.4,1827.65,779.4,1827.5,779.4,1827.34z"/>
				<path class="st2" d="M783.3,1831.31c-0.22,0-0.44,0.02-0.66,0c-0.57-0.08-0.92-0.41-0.97-0.99c-0.05-0.61,0.23-1.06,0.83-1.17
					c0.51-0.09,1.05-0.09,1.57-0.03c0.61,0.07,0.97,0.56,0.94,1.15c-0.03,0.59-0.43,0.99-1.06,1.05
					C783.74,1831.33,783.52,1831.32,783.3,1831.31C783.3,1831.32,783.3,1831.31,783.3,1831.31z"/>
				<path class="st2" d="M773.09,1790.66c-0.88,0-1.76,0.01-2.64,0c-0.75-0.01-1.21-0.44-1.22-1.1c-0.01-0.65,0.46-1.14,1.19-1.14
					c1.83-0.02,3.65-0.02,5.48,0c0.73,0.01,1.22,0.47,1.23,1.11c0.01,0.66-0.49,1.12-1.26,1.13
					C774.94,1790.67,774.02,1790.66,773.09,1790.66z"/>
				<path class="st2" d="M729.09,1790.65c-1.12,0.01-1.68-0.37-1.66-1.13c0.01-0.75,0.57-1.12,1.7-1.12c0.24,0,0.49-0.01,0.72,0.02
					c0.58,0.1,1,0.61,0.97,1.16c-0.03,0.57-0.47,1.01-1.07,1.06C729.53,1790.67,729.31,1790.65,729.09,1790.65z"/>
				<path class="st2" d="M740.4,1790.66c-1.14,0-1.66-0.35-1.66-1.13c0.01-0.77,0.54-1.13,1.67-1.13c0.22,0,0.44-0.01,0.66,0.01
					c0.63,0.08,1.05,0.57,1.03,1.16c-0.02,0.6-0.46,1.03-1.11,1.07C740.79,1790.67,740.6,1790.66,740.4,1790.66z"/>
				<path class="st2" d="M734.74,1790.66c-0.13,0-0.26,0-0.4,0c-0.79-0.02-1.26-0.45-1.25-1.14c0.01-0.65,0.48-1.08,1.22-1.11
					c0.33-0.01,0.66-0.02,0.99,0c0.72,0.04,1.17,0.52,1.14,1.18c-0.03,0.64-0.47,1.04-1.18,1.07
					C735.09,1790.66,734.91,1790.66,734.74,1790.66z"/>
			</g>
		</g>
		<g>
			<text transform="matrix(1 0 0 1 319.9966 1891.4924)" class="st2 st8 st32">Learn</text>
			<g>
				<path class="st2" d="M348.63,1849.42c-3.91-3.91-8.75-5.08-13.72-5.87c-5.56-0.89-11.17-0.97-16.79-0.99
					c-2.95-0.01-4.58-1.67-4.58-4.65c0-16.2,0-32.4,0-48.59c0-2.94,1.7-4.63,4.64-4.6c6.26,0.07,12.52,0.16,18.7,1.3
					c3.86,0.71,7.59,1.78,10.99,3.81c0.56,0.34,0.78,0.71,0.78,1.38c-0.02,19.07-0.01,38.14-0.01,57.21
					C348.63,1848.68,348.63,1848.93,348.63,1849.42z"/>
				<path class="st2" d="M352.79,1849.48c0-0.63,0-0.98,0-1.33c0-18.91,0.01-37.82-0.02-56.73c0-0.82,0.24-1.28,0.94-1.69
					c3.65-2.13,7.66-3.19,11.77-3.88c5.97-1,12.01-1.1,18.04-1.12c2.64-0.01,4.36,1.75,4.36,4.39c0.01,16.36,0.01,32.72,0,49.08
					c0,2.63-1.73,4.27-4.37,4.38c-5.15,0.21-10.32,0.32-15.45,0.82c-2.98,0.29-5.94,1.13-8.84,1.98
					C356.83,1846.08,354.72,1847.42,352.79,1849.48z"/>
				<path class="st2" d="M309.42,1793.05c0,0.47,0,0.88,0,1.29c0,14.55,0,29.11,0,43.66c0,4.06,2.11,7.15,5.73,8.26
					c1,0.31,2.09,0.39,3.14,0.4c5.32,0.09,10.66,0.03,15.92,0.98c2.61,0.47,5.16,1.33,7.72,2.07c0.6,0.17,1.13,0.57,1.67,1.06
					c-0.22,0.03-0.45,0.08-0.67,0.08c-11.07,0-22.13,0.01-33.2,0c-2.75,0-4.46-1.74-4.46-4.5c-0.01-16.3-0.01-32.59,0-48.89
					C305.26,1794.86,306.89,1793.11,309.42,1793.05z"/>
				<path class="st2" d="M357.75,1850.53c1.04-0.47,2.05-1,3.11-1.39c3.64-1.33,7.44-1.84,11.27-2.09
					c3.67-0.23,7.35-0.32,11.02-0.36c5.41-0.07,8.83-3.43,8.83-8.83c0.01-14.52,0-29.04,0-43.56c0-0.41,0-0.82,0-1.23
					c1.92-0.07,3.61,1.24,4.01,3.07c0.11,0.53,0.15,1.09,0.15,1.63c0.01,16.07,0.01,32.14,0.01,48.21c0,3.26-1.61,4.85-4.89,4.86
					c-10.81,0-21.62,0-32.42,0c-0.34,0-0.67,0-1.01,0C357.81,1850.74,357.78,1850.63,357.75,1850.53z"/>
			</g>
		</g>
		<g>
			<text transform="matrix(1 0 0 1 923.2814 1891.4924)" class="st2 st8 st32">Other</text>
			<g>
				<path class="st2" d="M954.3,1784.52c18.44-0.01,33.33,14.89,33.33,33.32c0,18.44-14.95,33.32-33.58,33.2
					c-18.28-0.12-32.91-14.9-32.95-33.15C921.06,1799.44,935.95,1784.53,954.3,1784.52z M954.42,1789.27
					c-15.74,0-28.55,12.73-28.57,28.39c-0.02,15.83,12.73,28.65,28.47,28.65c15.8-0.01,28.55-12.74,28.57-28.54
					C982.9,1802.1,970.1,1789.28,954.42,1789.27z"/>
				<path class="st2" d="M944.85,1817.78c0.01,2.62-2.13,4.77-4.75,4.77c-2.6,0-4.73-2.11-4.75-4.7c-0.02-2.63,2.1-4.79,4.71-4.81
					C942.7,1813.03,944.84,1815.15,944.85,1817.78z"/>
				<path class="st2" d="M959.11,1817.82c-0.01,2.62-2.17,4.75-4.8,4.72c-2.59-0.02-4.7-2.15-4.7-4.75c0-2.63,2.14-4.77,4.76-4.76
					C957,1813.05,959.12,1815.19,959.11,1817.82z"/>
				<path class="st2" d="M968.6,1822.55c-2.62-0.01-4.75-2.16-4.73-4.79c0.02-2.62,2.18-4.74,4.81-4.71
					c2.62,0.03,4.72,2.19,4.69,4.83C973.35,1820.45,971.19,1822.56,968.6,1822.55z"/>
			</g>
		</g>
	</g>
</g>
</svg>
